<?xml version="1.0" standalone="no"?>
<!DOCTYPE svg PUBLIC "-//W3C//DTD SVG 20010904//EN"
 "http://www.w3.org/TR/2001/REC-SVG-20010904/DTD/svg10.dtd">
<svg version="1.0" xmlns="http://www.w3.org/2000/svg"
 width="95.000000pt" height="95.000000pt" viewBox="0 0 95.000000 95.000000"
 preserveAspectRatio="xMidYMid meet">
<metadata>
Created by potrace 1.11, written by Peter Selinger 2001-2013
</metadata>
<g transform="translate(0.000000,95.000000) scale(0.100000,-0.100000)"
fill="#000000" stroke="none">
<path d="M0 875 l0 -75 475 0 475 0 0 75 0 75 -475 0 -475 0 0 -75z"/>
<path d="M12 678 c3 -7 38 -106 78 -220 l74 -208 37 0 36 0 77 213 c42 116 76
215 76 220 0 4 -17 7 -38 7 l-38 0 -54 -165 c-30 -91 -57 -165 -60 -165 -4 0
-30 74 -59 165 l-52 165 -40 0 c-29 0 -40 -4 -37 -12z"/>
<path d="M480 470 l0 -220 36 0 36 0 -4 165 c-4 189 -7 190 72 -22 51 -135 55
-143 80 -143 26 0 31 8 90 163 34 89 64 164 66 166 2 2 1 -71 -3 -163 l-6
-166 41 0 42 0 0 221 0 220 -52 -3 -51 -3 -61 -162 c-33 -89 -63 -160 -66
-158 -4 2 -33 76 -66 165 l-59 160 -47 0 -48 0 0 -220z"/>
<path d="M0 75 l0 -75 475 0 475 0 0 75 0 75 -475 0 -475 0 0 -75z"/>
</g>
</svg>
